<svg width="22" height="28" viewBox="0 0 22 28" fill="none" xmlns="http://www.w3.org/2000/svg">
<g id="Lock">
<path id="Shape-69" fill-rule="evenodd" clip-rule="evenodd" d="M18.559 10.8291V8.02927C18.5599 5.32809 17.1196 2.83224 14.7808 1.48166C12.442 0.131073 9.5603 0.131073 7.22162 1.4819C4.88293 2.83273 3.44281 5.32883 3.44397 8.02951V10.8291H0.958984V17.4883C0.958984 23.0337 5.45447 27.5293 11 27.5293C16.5455 27.5293 21.041 23.0337 21.041 17.4883V10.8291H18.559ZM11.794 20.2292V22.7011H10.207V20.2312C8.81104 19.8357 7.92047 18.4714 8.12012 17.0341C8.31982 15.5971 9.54858 14.5273 10.9995 14.5273C12.4504 14.5273 13.6791 15.5971 13.8788 17.0341C14.0785 18.4714 13.1879 19.8357 11.792 20.2312L11.794 20.2292ZM16.973 10.8291H5.02795V8.02927C5.02795 4.73093 7.70172 2.0571 11 2.0571C14.2982 2.0571 16.972 4.73093 16.972 8.02927L16.973 10.8291Z" fill="#80E770"/>
</g>
</svg>
